<svg width="22" height="22" viewBox="0 0 22 22" fill="none" xmlns="http://www.w3.org/2000/svg">
<path d="M18 3H6C4.89543 3 4 3.89543 4 5V17C4 17.1121 4.00922 17.222 4.02693 17.329C4.18385 18.277 5.0075 19 6 19H18C19.1046 19 20 18.1046 20 17V13.1901V5C20 3.89543 19.1046 3 18 3Z" stroke="#E6EFFF" stroke-width="1.5" stroke-linecap="round" stroke-linejoin="round"/>
<path d="M11 8C11 9.1046 10.1046 10 9 10C7.89543 10 7 9.1046 7 8C7 6.89543 7.89543 6 9 6C10.1046 6 11 6.89543 11 8Z" stroke="#E6EFFF" stroke-width="1.5" stroke-linecap="round" stroke-linejoin="round"/>
<path d="M4.02692 17.329L7.84762 13.5083C8.52765 12.9133 9.52219 12.8482 10.274 13.3494L10.7832 13.6888C11.5078 14.1719 12.4619 14.1305 13.142 13.5865L15.7901 11.4679C16.4651 10.9279 17.4053 10.8856 18.1228 11.3484C18.2023 11.3997 18.2731 11.4632 18.34 11.5302L20 13.1901" stroke="#E6EFFF" stroke-width="1.5" stroke-linecap="round" stroke-linejoin="round"/>
</svg>
