<svg width="184" height="171" viewBox="0 0 184 171" fill="none" xmlns="http://www.w3.org/2000/svg">
<path d="M133.635 50.5569C132.16 49.0316 126.36 44.9292 124.168 43.5443C122.763 42.6566 121.171 41.9477 119.088 41.7206L97.3424 41.7195V27.1135C97.3424 22.4186 93.7734 18.4358 87.4834 18.4358C81.1933 18.4358 77.6359 22.2799 77.6359 27.1135V41.7183L56.4841 41.7172C53.2325 42.1967 50.2648 43.9251 49.9536 45.9518C49.3882 49.6324 50.3446 53.8501 50.0276 57.5861C50.9234 59.9772 54.4149 61.5083 58.5191 61.5969C64.7932 61.4121 71.1976 61.4332 77.6362 61.51V82.2821C77.6362 101.623 77.47 104.078 78.4273 106.224C78.4273 106.224 80.1495 112.254 88.4334 112.259C98.4137 112.265 98.0546 102.648 97.8153 95.8383L97.3427 81.2861V61.7838C104 61.8506 110.608 61.8436 117.061 61.5972C119.046 61.5213 120.643 61.3294 122.274 60.6298C124.594 59.6349 131.298 54.5986 133.103 53.021C134.209 52.0538 134.706 51.6641 133.636 50.5574L133.635 50.5569Z" fill="#081A3D"/>
<path d="M19.067 131.04C19.5605 132.986 19.7373 134.968 20.0888 136.949C20.442 134.968 20.6529 132.986 21.1463 131.04L23.4021 122.019C23.6847 120.887 24.5658 120.214 25.6578 120.214C26.8561 120.214 28.407 120.887 28.407 122.372C28.407 122.444 28.4071 122.62 28.3369 122.833L23.0505 143.459C22.6973 144.625 21.8511 145.687 20.1606 145.687C18.4701 145.687 17.5865 144.591 17.235 143.423L15.1556 134.754C14.6966 132.915 14.5214 130.969 14.2027 129.094C13.8856 130.969 13.7104 132.915 13.2514 134.754L11.138 143.493C10.8193 144.519 10.115 145.687 8.24647 145.687C6.80171 145.687 5.63916 144.518 5.32206 143.458L0.140708 123.008C0.0705545 122.655 0 122.337 0 122.337C0 121.027 1.40909 120.213 2.64299 120.213C3.66483 120.213 4.65179 120.743 4.93321 121.912L7.26071 131.039C7.75419 132.951 7.92938 134.967 8.28255 136.913C8.63572 135.038 8.81051 132.915 9.26991 131.039L11.3493 122.726C11.7726 121.063 12.2661 120.107 14.2031 120.107C16.0011 120.107 16.6353 121.134 17.0229 122.726L19.0678 131.039L19.067 131.04Z" fill="#081A3D"/>
<path d="M34.5553 138.399V139.567C34.5553 140.77 35.4721 141.548 37.3751 141.548C38.5028 141.548 39.42 141.265 40.5477 140.77C40.6884 140.7 41.0055 140.558 41.6036 140.558C43.2953 140.558 43.7888 141.69 43.7888 142.503C43.7888 144.98 39.2773 145.617 37.0215 145.617C32.3693 145.617 29.6907 142.928 29.6907 139.426V133.518C29.6907 129.944 32.2992 127.219 37.1983 127.219C41.816 127.219 44.1059 129.66 44.1059 133.234C44.1059 136.63 42.0265 138.613 37.2685 138.613C36.3529 138.613 35.5768 138.541 34.5549 138.399L34.5553 138.399ZM37.1638 131.006C35.4721 131.006 34.5553 131.89 34.5553 133.305V134.826C35.683 134.932 36.7405 134.968 37.0921 134.968C38.4322 134.968 39.2773 134.507 39.2773 132.986C39.2773 131.572 38.5385 131.006 37.1638 131.006Z" fill="#081A3D"/>
<path d="M48.9789 144.308C48.4149 143.316 48.2385 142.15 48.2385 141.407C48.2385 140.593 48.4854 139.744 49.2259 138.824C47.7093 137.551 46.9701 135.887 46.9701 133.941C46.9701 130.121 49.5069 127.219 54.0184 127.219C55.8163 127.219 57.2254 127.68 58.7419 128.423C59.6932 127.114 60.8554 126.477 61.8427 126.477C63.0409 126.477 64.1341 127.361 64.1341 128.528C64.1341 129.13 63.8154 129.59 63.5701 129.801C62.3362 130.899 61.983 131.217 61.983 132.208V134.189C61.983 137.833 59.5509 140.629 54.4052 140.629C53.8412 140.629 53.1024 140.593 52.4666 140.452C52.2914 140.911 52.2557 141.018 52.2557 141.265C52.2557 142.255 52.8197 142.397 53.2431 142.397H54.7223C59.3039 142.397 62.8297 144.096 62.8297 147.845C62.8297 151.594 59.34 153.93 54.5475 153.93C49.9298 153.93 46.7228 151.737 46.7228 148.199C46.7228 146.819 47.3213 145.651 48.9785 144.307L48.9789 144.308ZM52.2204 146.36C51.7987 146.89 51.5862 147.279 51.5862 147.845C51.5862 149.155 52.5736 149.934 54.6181 149.934C56.6269 149.934 57.9658 149.19 57.9658 147.952C57.9658 146.89 56.9785 146.395 54.7933 146.395L52.2204 146.36ZM54.6181 131.147C52.8201 131.147 51.8328 132.173 51.8328 134.012C51.8328 135.71 52.6434 136.808 54.5475 136.808C56.3098 136.808 57.1204 135.816 57.1204 134.225V131.747C56.2036 131.359 55.4287 131.147 54.6177 131.147L54.6181 131.147Z" fill="#081A3D"/>
<path d="M66.5426 121.983C66.5426 120.851 67.4237 119.825 68.9747 119.825C70.5257 119.825 71.4069 120.851 71.4069 121.983V128.21C72.5345 127.573 73.5909 127.219 75.2481 127.219C79.7235 127.219 81.5575 129.767 81.5575 133.093V139.036C81.5575 142.75 79.0548 145.617 74.0499 145.617C69.2918 145.617 66.5422 142.998 66.5422 139.672V121.983H66.5426ZM71.4069 139.672C71.4069 140.982 72.4287 141.795 74.0843 141.795C75.8466 141.795 76.6929 140.876 76.6929 139.39V132.915C76.6929 131.642 75.9885 130.899 74.2607 130.899C73.133 130.899 72.1457 131.217 71.4069 131.89V139.672Z" fill="#081A3D"/>
<path d="M89.6031 138.399V139.567C89.6031 140.77 90.52 141.548 92.4229 141.548C93.5506 141.548 94.4678 141.265 95.5955 140.77C95.7362 140.7 96.0533 140.558 96.6514 140.558C98.3431 140.558 98.8366 141.69 98.8366 142.503C98.8366 144.98 94.3251 145.617 92.0694 145.617C87.4172 145.617 84.7385 142.928 84.7385 139.426V133.518C84.7385 129.944 87.347 127.219 92.2461 127.219C96.8639 127.219 99.1537 129.66 99.1537 133.234C99.1537 136.63 97.0743 138.613 92.3163 138.613C91.4007 138.613 90.6246 138.541 89.6027 138.399L89.6031 138.399ZM92.2117 131.006C90.52 131.006 89.6031 131.89 89.6031 133.305V134.826C90.7308 134.932 91.7883 134.968 92.1399 134.968C93.48 134.968 94.3251 134.507 94.3251 132.986C94.3251 131.572 93.5847 131.006 92.2117 131.006Z" fill="#081A3D"/>
<path d="M107.409 132.066C107.445 132.313 107.479 132.526 107.479 132.738V143.423C107.479 144.662 106.422 145.617 105.047 145.617C103.672 145.617 102.616 144.662 102.616 143.423V132.738C102.616 131.925 102.51 131.501 102.229 131.076C101.946 130.722 101.735 130.439 101.735 129.908C101.735 128.635 102.863 127.785 104.132 127.785C104.872 127.785 105.506 128.246 106 128.883C107.621 127.928 109.241 127.361 110.369 127.361C112.59 127.361 113.261 128.281 113.261 129.483C113.261 130.863 112.133 131.783 110.792 131.713C109.277 131.642 108.643 131.571 107.409 132.066Z" fill="#081A3D"/>
<path d="M120.245 138.399V139.567C120.245 140.77 121.162 141.548 123.065 141.548C124.193 141.548 125.11 141.265 126.238 140.77C126.379 140.7 126.696 140.558 127.294 140.558C128.985 140.558 129.479 141.69 129.479 142.503C129.479 144.98 124.967 145.617 122.712 145.617C118.06 145.617 115.381 142.928 115.381 139.426V133.518C115.381 129.944 117.989 127.219 122.888 127.219C127.506 127.219 129.796 129.66 129.796 133.234C129.796 136.63 127.717 138.613 122.959 138.613C122.043 138.613 121.267 138.541 120.245 138.399L120.245 138.399ZM122.854 131.006C121.163 131.006 120.246 131.89 120.246 133.305V134.826C121.374 134.932 122.431 134.968 122.783 134.968C124.123 134.968 124.968 134.507 124.968 132.986C124.968 131.572 124.229 131.006 122.854 131.006Z" fill="#081A3D"/>
<path d="M135.869 125.061C134.318 125.061 133.12 123.929 133.12 122.585C133.12 121.205 134.318 120.108 135.869 120.108C137.42 120.108 138.618 121.24 138.618 122.585C138.618 123.965 137.42 125.061 135.869 125.061ZM138.301 143.423C138.301 144.662 137.244 145.617 135.869 145.617C134.494 145.617 133.437 144.662 133.437 143.423V129.483C133.437 128.316 134.494 127.325 135.869 127.325C137.244 127.325 138.301 128.316 138.301 129.483V143.423Z" fill="#081A3D"/>
<path d="M143.17 124.283C143.17 123.081 144.051 122.124 145.602 122.124C147.153 122.124 148.034 123.115 148.034 124.283V128.21H150.641C151.946 128.21 152.967 129.13 152.967 130.333C152.967 131.536 151.945 132.421 150.641 132.421H148.034V137.763C148.034 140.381 148.245 141.3 149.937 141.3C150.254 141.3 150.465 141.266 150.536 141.266C152.756 141.266 153.426 141.867 153.426 143.176C153.426 145.228 151.805 145.51 150.043 145.51C144.579 145.51 143.17 142.823 143.17 138.01V124.283Z" fill="#081A3D"/>
<path d="M160.341 138.399V139.567C160.341 140.77 161.258 141.548 163.161 141.548C164.289 141.548 165.206 141.265 166.334 140.77C166.474 140.7 166.791 140.558 167.39 140.558C169.081 140.558 169.575 141.69 169.575 142.503C169.575 144.98 165.063 145.617 162.808 145.617C158.155 145.617 155.477 142.928 155.477 139.426V133.518C155.477 129.944 158.085 127.219 162.984 127.219C167.602 127.219 169.892 129.66 169.892 133.234C169.892 136.63 167.813 138.613 163.054 138.613C162.139 138.613 161.363 138.541 160.341 138.399L160.341 138.399ZM162.95 131.006C161.259 131.006 160.342 131.89 160.342 133.305V134.826C161.469 134.932 162.527 134.968 162.878 134.968C164.219 134.968 165.064 134.507 165.064 132.986C165.064 131.572 164.323 131.006 162.95 131.006Z" fill="#081A3D"/>
<path d="M178.149 132.066C178.184 132.313 178.219 132.526 178.219 132.738V143.423C178.219 144.662 177.161 145.617 175.788 145.617C174.415 145.617 173.356 144.662 173.356 143.423V132.738C173.356 131.925 173.25 131.501 172.967 131.076C172.686 130.722 172.475 130.439 172.475 129.908C172.475 128.635 173.602 127.785 174.871 127.785C175.612 127.785 176.246 128.246 176.739 128.883C178.361 127.928 179.981 127.361 181.108 127.361C183.33 127.361 184 128.281 184 129.483C184 130.863 182.872 131.783 181.532 131.713C180.016 131.642 179.382 131.571 178.148 132.066H178.149Z" fill="#081A3D"/>
</svg>
